<svg id="Layer_1" data-name="Layer 1" xmlns="http://www.w3.org/2000/svg" viewBox="0 0 577 631"><defs><style>.cls-1{fill:#fff;}</style></defs><path class="cls-1" d="M465.91,428.63c0,48.6-.14,94.12.13,139.64,0,8.07-.51,17.64,3.45,23.79,4.43,6.9,13.62,14.66,20.87,14.79,8.1.14,18.37-6.2,23.87-12.87,4.44-5.37,4.3-15.42,4.31-23.4q.33-245.49.15-491c0-39.39-21.78-54.56-58.15-39.93C385.23,70,347.47,127.89,342.63,207c-3,48.93-2.5,98.15-1.74,147.2.71,46,29.67,73.38,75.73,74.36C432.27,428.92,447.94,428.63,465.91,428.63ZM133.14,340.78v19.36q0,104.31,0,208.63c0,26.7,8.57,39.06,26.86,39.16s26.79-12.13,27.06-39c.05-4.67,0-9.35,0-14q0-98.19,0-196.36c0-6.16.69-12.32,1-18,78.32-13.27,109.91-47.89,105.29-119-3.52-54.14-10.89-108-17.14-162-1.88-16.23-14.38-26.28-28.51-25.16-14.74,1.17-24.23,11.92-23.47,29.38.81,18.62,3.4,37.17,5.27,55.73,4,39.45,9.36,78.81,11.56,118.36,1.56,28.06-18.91,47.45-46.7,48-23.38.48-46.79.5-70.17-.06-25.55-.61-44.12-18.59-44.91-44.34-.49-15.68.9-31.5,2.56-47.15,4.36-41.19,9.6-82.29,13.92-123.49,2.15-20.48-6.54-34-21.78-36.32-15.79-2.37-27.82,7.46-30.21,28.63C37.37,120.47,30.09,177.89,27.1,235.5c-2.49,48,24.9,84.63,67.25,97.9C105.9,337,118.26,338,133.14,340.78Zm0-200.41c0,25.06-.23,50.13.07,75.19.23,20,10.53,32.58,26.31,33,15.46.45,26.82-10.51,27.13-30.11q1.2-76.92.06-153.87c-.29-19.8-11.3-30.49-26.94-30.1-16.5.42-26.29,12-26.55,32.4C132.89,91.4,133.13,115.89,133.13,140.37Z"/><path d="M465.91,428.63c-18,0-33.64.29-49.29-.05-46.06-1-75-28.37-75.73-74.36-.76-49.05-1.25-98.27,1.74-147.2,4.84-79.13,42.6-137,117.91-167.34,36.37-14.63,58.14.54,58.15,39.93q.06,245.49-.15,491c0,8,.13,18-4.31,23.4-5.5,6.67-15.77,13-23.87,12.87-7.25-.13-16.44-7.89-20.87-14.79-4-6.15-3.4-15.72-3.45-23.79C465.77,522.75,465.91,477.23,465.91,428.63Zm-.65-331.52c-30.41,10.64-60.6,42.9-64.87,82.69-6.32,58.87-5.83,118.52-6.74,177.86-.09,5.89,9.68,16.3,15.83,17.08,18.14,2.3,36.77.82,55.78.82Z"/><path d="M133.14,340.78C118.26,338,105.9,337,94.35,333.4,52,320.13,24.61,283.49,27.1,235.5c3-57.61,10.27-115,16.76-172.41,2.39-21.17,14.42-31,30.21-28.63C89.31,36.76,98,50.3,95.85,70.78c-4.32,41.2-9.56,82.3-13.92,123.49-1.66,15.65-3.05,31.47-2.56,47.15.79,25.75,19.36,43.73,44.91,44.34,23.38.56,46.79.54,70.17.06,27.79-.58,48.26-20,46.7-48-2.2-39.55-7.57-78.91-11.56-118.36-1.87-18.56-4.46-37.11-5.27-55.73-.76-17.46,8.73-28.21,23.47-29.38,14.13-1.12,26.63,8.93,28.51,25.16,6.25,54,13.62,107.85,17.14,162,4.62,71.13-27,105.75-105.29,119-.34,5.7-1,11.86-1,18q-.12,98.17,0,196.36c0,4.67,0,9.35,0,14-.27,26.91-8.75,39.13-27.06,39s-26.84-12.46-26.86-39.16q-.06-104.31,0-208.63Z"/><path d="M133.13,140.37c0-24.48-.24-49,.08-73.45.26-20.43,10-32,26.55-32.4,15.64-.39,26.65,10.3,26.94,30.1q1.13,76.92-.06,153.87c-.31,19.6-11.67,30.56-27.13,30.11-15.78-.46-26.08-13-26.31-33C132.9,190.5,133.13,165.43,133.13,140.37Z"/></svg>