<svg width="1000" height="996" viewBox="0 0 1000 996" fill="none" xmlns="http://www.w3.org/2000/svg">
<path d="M168.085 114.923C168.085 145.483 143.318 170.256 112.766 170.256C82.214 170.256 57.4468 145.483 57.4468 114.923C57.4468 84.3633 82.214 59.5897 112.766 59.5897C143.318 59.5897 168.085 84.3633 168.085 114.923Z" fill="url(#paint0_linear_845_422)"/>
<path d="M200 276.667C200 323.682 161.897 361.795 114.894 361.795C67.8907 361.795 29.7872 323.682 29.7872 276.667C29.7872 229.652 67.8907 191.538 114.894 191.538C161.897 191.538 200 229.652 200 276.667Z" fill="url(#paint1_linear_845_422)"/>
<path d="M1000 495.872C1000 559.342 948.56 610.795 885.106 610.795C821.652 610.795 770.213 559.342 770.213 495.872C770.213 432.402 821.652 380.949 885.106 380.949C948.56 380.949 1000 432.402 1000 495.872Z" fill="url(#paint2_linear_845_422)"/>
<path d="M229.787 498C229.787 561.47 178.348 612.923 114.894 612.923C51.4396 612.923 0 561.47 0 498C0 434.53 51.4396 383.077 114.894 383.077C178.348 383.077 229.787 434.53 229.787 498Z" fill="url(#paint3_linear_845_422)"/>
<path d="M617.021 881.077C617.021 944.547 565.582 996 502.128 996C438.674 996 387.234 944.547 387.234 881.077C387.234 817.607 438.674 766.154 502.128 766.154C565.582 766.154 617.021 817.607 617.021 881.077Z" fill="url(#paint4_linear_845_422)"/>
<path d="M614.894 114.923C614.894 178.393 563.454 229.846 500 229.846C436.546 229.846 385.106 178.393 385.106 114.923C385.106 51.4528 436.546 0 500 0C563.454 0 614.894 51.4528 614.894 114.923Z" fill="url(#paint5_linear_845_422)"/>
<path d="M585.106 659.744C585.106 706.759 547.003 744.872 500 744.872C452.997 744.872 414.894 706.759 414.894 659.744C414.894 612.729 452.997 574.615 500 574.615C547.003 574.615 585.106 612.729 585.106 659.744Z" fill="url(#paint6_linear_845_422)"/>
<path d="M744.681 500.128C744.681 547.143 706.577 585.256 659.574 585.256C612.572 585.256 574.468 547.143 574.468 500.128C574.468 453.113 612.572 415 659.574 415C706.577 415 744.681 453.113 744.681 500.128Z" fill="url(#paint7_linear_845_422)"/>
<path d="M423.404 500.128C423.404 547.143 385.301 585.256 338.298 585.256C291.295 585.256 253.191 547.143 253.191 500.128C253.191 453.113 291.295 415 338.298 415C385.301 415 423.404 453.113 423.404 500.128Z" fill="url(#paint8_linear_845_422)"/>
<path d="M585.106 336.256C585.106 383.271 547.003 421.385 500 421.385C452.997 421.385 414.894 383.271 414.894 336.256C414.894 289.241 452.997 251.128 500 251.128C547.003 251.128 585.106 289.241 585.106 336.256Z" fill="url(#paint9_linear_845_422)"/>
<path d="M806.383 885.333C806.383 932.348 768.28 970.461 721.277 970.461C674.274 970.461 636.17 932.348 636.17 885.333C636.17 838.318 674.274 800.205 721.277 800.205C768.28 800.205 806.383 838.318 806.383 885.333Z" fill="url(#paint10_linear_845_422)"/>
<path d="M363.83 885.333C363.83 932.348 325.726 970.461 278.723 970.461C231.72 970.461 193.617 932.348 193.617 885.333C193.617 838.318 231.72 800.205 278.723 800.205C325.726 800.205 363.83 838.318 363.83 885.333Z" fill="url(#paint11_linear_845_422)"/>
<path d="M808.511 114.923C808.511 161.938 770.407 200.051 723.404 200.051C676.401 200.051 638.298 161.938 638.298 114.923C638.298 67.9081 676.401 29.7949 723.404 29.7949C770.407 29.7949 808.511 67.9081 808.511 114.923Z" fill="url(#paint12_linear_845_422)"/>
<path d="M970.213 723.59C970.213 770.605 932.109 808.718 885.106 808.718C838.103 808.718 800 770.605 800 723.59C800 676.575 838.103 638.462 885.106 638.462C932.109 638.462 970.213 676.575 970.213 723.59Z" fill="url(#paint13_linear_845_422)"/>
<path d="M970.213 278.795C970.213 325.81 932.109 363.923 885.106 363.923C838.103 363.923 800 325.81 800 278.795C800 231.78 838.103 193.667 885.106 193.667C932.109 193.667 970.213 231.78 970.213 278.795Z" fill="url(#paint14_linear_845_422)"/>
<path d="M193.617 721.461C193.617 768.477 155.514 806.59 108.511 806.59C61.5077 806.59 23.4043 768.477 23.4043 721.461C23.4043 674.447 61.5077 636.333 108.511 636.333C155.514 636.333 193.617 674.447 193.617 721.461Z" fill="url(#paint15_linear_845_422)"/>
<path d="M363.83 114.923C363.83 161.938 325.726 200.051 278.723 200.051C231.72 200.051 193.617 161.938 193.617 114.923C193.617 67.9081 231.72 29.7949 278.723 29.7949C325.726 29.7949 363.83 67.9081 363.83 114.923Z" fill="url(#paint16_linear_845_422)"/>
<path d="M363.83 691.667C363.83 722.226 339.063 747 308.511 747C277.959 747 253.191 722.226 253.191 691.667C253.191 661.107 277.959 636.333 308.511 636.333C339.063 636.333 363.83 661.107 363.83 691.667Z" fill="url(#paint17_linear_845_422)"/>
<path d="M744.681 691.667C744.681 722.226 719.914 747 689.362 747C658.81 747 634.043 722.226 634.043 691.667C634.043 661.107 658.81 636.333 689.362 636.333C719.914 636.333 744.681 661.107 744.681 691.667Z" fill="url(#paint18_linear_845_422)"/>
<path d="M744.681 306.462C744.681 337.021 719.914 361.795 689.362 361.795C658.81 361.795 634.043 337.021 634.043 306.462C634.043 275.902 658.81 251.128 689.362 251.128C719.914 251.128 744.681 275.902 744.681 306.462Z" fill="url(#paint19_linear_845_422)"/>
<path d="M363.83 308.59C363.83 339.149 339.063 363.923 308.511 363.923C277.959 363.923 253.191 339.149 253.191 308.59C253.191 278.03 277.959 253.256 308.511 253.256C339.063 253.256 363.83 278.03 363.83 308.59Z" fill="url(#paint20_linear_845_422)"/>
<path d="M557.447 498C557.447 528.56 532.68 553.333 502.128 553.333C471.576 553.333 446.809 528.56 446.809 498C446.809 467.44 471.576 442.667 502.128 442.667C532.68 442.667 557.447 467.44 557.447 498Z" fill="url(#paint21_linear_845_422)"/>
<path d="M940.426 887.461C940.426 918.021 915.658 942.795 885.106 942.795C854.554 942.795 829.787 918.021 829.787 887.461C829.787 856.902 854.554 832.128 885.106 832.128C915.658 832.128 940.426 856.902 940.426 887.461Z" fill="url(#paint22_linear_845_422)"/>
<path d="M942.553 114.923C942.553 145.483 917.786 170.256 887.234 170.256C856.682 170.256 831.915 145.483 831.915 114.923C831.915 84.3633 856.682 59.5897 887.234 59.5897C917.786 59.5897 942.553 84.3633 942.553 114.923Z" fill="url(#paint23_linear_845_422)"/>
<path d="M170.213 881.077C170.213 911.637 145.446 936.41 114.894 936.41C84.3417 936.41 59.5745 911.637 59.5745 881.077C59.5745 850.517 84.3417 825.744 114.894 825.744C145.446 825.744 170.213 850.517 170.213 881.077Z" fill="url(#paint24_linear_845_422)"/>
<defs>
<linearGradient id="paint0_linear_845_422" x1="4.5402e-06" y1="498" x2="1000" y2="498" gradientUnits="userSpaceOnUse">
<stop stop-color="#00F904"/>
<stop offset="1" stop-color="#007A9A"/>
</linearGradient>
<linearGradient id="paint1_linear_845_422" x1="4.5402e-06" y1="498" x2="1000" y2="498" gradientUnits="userSpaceOnUse">
<stop stop-color="#00F904"/>
<stop offset="1" stop-color="#007A9A"/>
</linearGradient>
<linearGradient id="paint2_linear_845_422" x1="4.5402e-06" y1="498" x2="1000" y2="498" gradientUnits="userSpaceOnUse">
<stop stop-color="#00F904"/>
<stop offset="1" stop-color="#007A9A"/>
</linearGradient>
<linearGradient id="paint3_linear_845_422" x1="4.5402e-06" y1="498" x2="1000" y2="498" gradientUnits="userSpaceOnUse">
<stop stop-color="#00F904"/>
<stop offset="1" stop-color="#007A9A"/>
</linearGradient>
<linearGradient id="paint4_linear_845_422" x1="4.5402e-06" y1="498" x2="1000" y2="498" gradientUnits="userSpaceOnUse">
<stop stop-color="#00F904"/>
<stop offset="1" stop-color="#007A9A"/>
</linearGradient>
<linearGradient id="paint5_linear_845_422" x1="4.5402e-06" y1="498" x2="1000" y2="498" gradientUnits="userSpaceOnUse">
<stop stop-color="#00F904"/>
<stop offset="1" stop-color="#007A9A"/>
</linearGradient>
<linearGradient id="paint6_linear_845_422" x1="4.5402e-06" y1="498" x2="1000" y2="498" gradientUnits="userSpaceOnUse">
<stop stop-color="#00F904"/>
<stop offset="1" stop-color="#007A9A"/>
</linearGradient>
<linearGradient id="paint7_linear_845_422" x1="4.5402e-06" y1="498" x2="1000" y2="498" gradientUnits="userSpaceOnUse">
<stop stop-color="#00F904"/>
<stop offset="1" stop-color="#007A9A"/>
</linearGradient>
<linearGradient id="paint8_linear_845_422" x1="4.5402e-06" y1="498" x2="1000" y2="498" gradientUnits="userSpaceOnUse">
<stop stop-color="#00F904"/>
<stop offset="1" stop-color="#007A9A"/>
</linearGradient>
<linearGradient id="paint9_linear_845_422" x1="4.5402e-06" y1="498" x2="1000" y2="498" gradientUnits="userSpaceOnUse">
<stop stop-color="#00F904"/>
<stop offset="1" stop-color="#007A9A"/>
</linearGradient>
<linearGradient id="paint10_linear_845_422" x1="4.5402e-06" y1="498" x2="1000" y2="498" gradientUnits="userSpaceOnUse">
<stop stop-color="#00F904"/>
<stop offset="1" stop-color="#007A9A"/>
</linearGradient>
<linearGradient id="paint11_linear_845_422" x1="4.5402e-06" y1="498" x2="1000" y2="498" gradientUnits="userSpaceOnUse">
<stop stop-color="#00F904"/>
<stop offset="1" stop-color="#007A9A"/>
</linearGradient>
<linearGradient id="paint12_linear_845_422" x1="4.5402e-06" y1="498" x2="1000" y2="498" gradientUnits="userSpaceOnUse">
<stop stop-color="#00F904"/>
<stop offset="1" stop-color="#007A9A"/>
</linearGradient>
<linearGradient id="paint13_linear_845_422" x1="4.5402e-06" y1="498" x2="1000" y2="498" gradientUnits="userSpaceOnUse">
<stop stop-color="#00F904"/>
<stop offset="1" stop-color="#007A9A"/>
</linearGradient>
<linearGradient id="paint14_linear_845_422" x1="4.5402e-06" y1="498" x2="1000" y2="498" gradientUnits="userSpaceOnUse">
<stop stop-color="#00F904"/>
<stop offset="1" stop-color="#007A9A"/>
</linearGradient>
<linearGradient id="paint15_linear_845_422" x1="4.5402e-06" y1="498" x2="1000" y2="498" gradientUnits="userSpaceOnUse">
<stop stop-color="#00F904"/>
<stop offset="1" stop-color="#007A9A"/>
</linearGradient>
<linearGradient id="paint16_linear_845_422" x1="4.5402e-06" y1="498" x2="1000" y2="498" gradientUnits="userSpaceOnUse">
<stop stop-color="#00F904"/>
<stop offset="1" stop-color="#007A9A"/>
</linearGradient>
<linearGradient id="paint17_linear_845_422" x1="4.5402e-06" y1="498" x2="1000" y2="498" gradientUnits="userSpaceOnUse">
<stop stop-color="#00F904"/>
<stop offset="1" stop-color="#007A9A"/>
</linearGradient>
<linearGradient id="paint18_linear_845_422" x1="4.5402e-06" y1="498" x2="1000" y2="498" gradientUnits="userSpaceOnUse">
<stop stop-color="#00F904"/>
<stop offset="1" stop-color="#007A9A"/>
</linearGradient>
<linearGradient id="paint19_linear_845_422" x1="4.5402e-06" y1="498" x2="1000" y2="498" gradientUnits="userSpaceOnUse">
<stop stop-color="#00F904"/>
<stop offset="1" stop-color="#007A9A"/>
</linearGradient>
<linearGradient id="paint20_linear_845_422" x1="4.5402e-06" y1="498" x2="1000" y2="498" gradientUnits="userSpaceOnUse">
<stop stop-color="#00F904"/>
<stop offset="1" stop-color="#007A9A"/>
</linearGradient>
<linearGradient id="paint21_linear_845_422" x1="4.5402e-06" y1="498" x2="1000" y2="498" gradientUnits="userSpaceOnUse">
<stop stop-color="#00F904"/>
<stop offset="1" stop-color="#007A9A"/>
</linearGradient>
<linearGradient id="paint22_linear_845_422" x1="4.5402e-06" y1="498" x2="1000" y2="498" gradientUnits="userSpaceOnUse">
<stop stop-color="#00F904"/>
<stop offset="1" stop-color="#007A9A"/>
</linearGradient>
<linearGradient id="paint23_linear_845_422" x1="4.5402e-06" y1="498" x2="1000" y2="498" gradientUnits="userSpaceOnUse">
<stop stop-color="#00F904"/>
<stop offset="1" stop-color="#007A9A"/>
</linearGradient>
<linearGradient id="paint24_linear_845_422" x1="4.5402e-06" y1="498" x2="1000" y2="498" gradientUnits="userSpaceOnUse">
<stop stop-color="#00F904"/>
<stop offset="1" stop-color="#007A9A"/>
</linearGradient>
</defs>
</svg>
