<svg width="220" height="220" viewBox="0 0 220 220" fill="none" xmlns="http://www.w3.org/2000/svg">
<path d="M0 209.627V35.5639L44 77.0551V171.892C44 173.374 45.4667 174.856 46.9333 174.856H85.0667C86.5333 174.856 88 173.374 88 171.892V125.956C88 124.474 88 124.474 89.4667 124.474H92.4C93.8667 124.474 93.8667 124.474 95.3333 125.956C96.8 127.437 129.067 157.074 130.533 158.556C132 160.038 132 160.038 132 161.519V214.073C132 217.036 127.6 220 124.667 220H10.2667C5.86667 220 0 214.073 0 209.627Z" fill="url(#paint0_linear_1009_2228)"/>
<path d="M41.0667 8.89098V59.2732L85.0667 100.764V56.3095C85.0667 53.3459 86.5333 50.3822 90.9333 50.3822H170.133C176 50.3822 178.933 53.3459 178.933 59.2732V121.51C178.933 124.474 176 130.401 170.133 130.401H126.133V142.256L164.267 177.82H211.2C217.067 177.82 220 173.374 220 168.929V8.89098C220 4.44549 217.067 0 211.2 0H52.8C46.9333 0 41.0667 2.96366 41.0667 8.89098Z" fill="url(#paint1_linear_1009_2228)"/>
<defs>
<linearGradient id="paint0_linear_1009_2228" x1="258.786" y1="-23.9875" x2="-39.032" y2="189.347" gradientUnits="userSpaceOnUse">
<stop stop-color="#1A323F"/>
<stop offset="0.82" stop-color="#457D8E"/>
</linearGradient>
<linearGradient id="paint1_linear_1009_2228" x1="258.786" y1="-23.9875" x2="-39.032" y2="189.347" gradientUnits="userSpaceOnUse">
<stop stop-color="#1A323F"/>
<stop offset="0.82" stop-color="#457D8E"/>
</linearGradient>
</defs>
</svg>
